<svg width="16" height="16" viewBox="0 0 16 16" fill="none" xmlns="http://www.w3.org/2000/svg">
<path d="M4.66536 1.3335C5.03355 1.3335 5.33203 1.63197 5.33203 2.00016H10.6654C10.6654 1.63197 10.9638 1.3335 11.332 1.3335C11.7002 1.3335 11.9987 1.63197 11.9987 2.00016C12.2748 2.00016 12.8119 2.00016 13.3321 2.00016C14.0684 2.00016 14.6654 2.59712 14.6654 3.3335V13.3335C14.6654 14.0699 14.0684 14.6668 13.332 14.6668H2.66536C1.92899 14.6668 1.33203 14.0699 1.33203 13.3335L1.33203 3.3335C1.33203 2.59712 1.92896 2.00016 2.66534 2.00016C3.18554 2.00016 3.72257 2.00016 3.9987 2.00016C3.9987 1.63197 4.29717 1.3335 4.66536 1.3335ZM10.6654 3.3335H5.33203C5.33203 3.70169 5.03355 4.00016 4.66536 4.00016C4.29717 4.00016 3.9987 3.70169 3.9987 3.3335H2.66536V13.3335H13.332V3.3335H11.9987C11.9987 3.70169 11.7002 4.00016 11.332 4.00016C10.9638 4.00016 10.6654 3.70169 10.6654 3.3335ZM5.9987 10.0002C5.9987 9.63197 5.70022 9.3335 5.33203 9.3335H4.66536C4.29717 9.3335 3.9987 9.63197 3.9987 10.0002V10.6668C3.9987 11.035 4.29717 11.3335 4.66536 11.3335H5.33203C5.70022 11.3335 5.9987 11.035 5.9987 10.6668V10.0002ZM6.9987 6.66683C6.9987 6.29864 7.29718 6.00016 7.66536 6.00016H8.33203C8.70022 6.00016 8.9987 6.29864 8.9987 6.66683V7.3335C8.9987 7.70169 8.70022 8.00016 8.33203 8.00016H7.66536C7.29717 8.00016 6.9987 7.70169 6.9987 7.3335V6.66683ZM8.9987 10.0002C8.9987 9.63197 8.70022 9.3335 8.33203 9.3335H7.66536C7.29717 9.3335 6.9987 9.63197 6.9987 10.0002V10.6668C6.9987 11.035 7.29718 11.3335 7.66536 11.3335H8.33203C8.70022 11.3335 8.9987 11.035 8.9987 10.6668V10.0002ZM9.9987 10.0002C9.9987 9.63197 10.2972 9.3335 10.6654 9.3335H11.332C11.7002 9.3335 11.9987 9.63197 11.9987 10.0002V10.6668C11.9987 11.035 11.7002 11.3335 11.332 11.3335H10.6654C10.2972 11.3335 9.9987 11.035 9.9987 10.6668V10.0002ZM11.9987 6.66683C11.9987 6.29864 11.7002 6.00016 11.332 6.00016H10.6654C10.2972 6.00016 9.9987 6.29864 9.9987 6.66683V7.3335C9.9987 7.70169 10.2972 8.00016 10.6654 8.00016H11.332C11.7002 8.00016 11.9987 7.70169 11.9987 7.3335V6.66683Z" fill="#646A73"/>
</svg>
