<svg width="16" height="16" viewBox="0 0 16 16" fill="none" xmlns="http://www.w3.org/2000/svg">
<path d="M13.3333 2.99984H3.33333C2.96514 2.99984 2.66667 3.29831 2.66667 3.6665V5.6665H1.33333V3.6665C1.33333 2.56193 2.22876 1.6665 3.33333 1.6665H13.3333C14.4379 1.6665 15.3333 2.56193 15.3333 3.6665V12.3332C15.3333 13.4377 14.4379 14.3332 13.3333 14.3332H9.33333V12.9998H13.3333C13.7015 12.9998 14 12.7014 14 12.3332V3.6665C14 3.29831 13.7015 2.99984 13.3333 2.99984Z" fill="#646A73"/>
<path d="M7.16667 5.6665C6.79848 5.6665 6.5 5.96498 6.5 6.33317C6.5 6.70136 6.79848 6.99984 7.16667 6.99984H11.3333C11.7015 6.99984 12 6.70136 12 6.33317C12 5.96498 11.7015 5.6665 11.3333 5.6665H7.16667Z" fill="#646A73"/>
<path d="M8.66667 8.99984C8.29848 8.99984 8 9.29831 8 9.6665C8 10.0347 8.29848 10.3332 8.66667 10.3332H11.3333C11.7015 10.3332 12 10.0347 12 9.6665C12 9.29831 11.7015 8.99984 11.3333 8.99984H8.66667Z" fill="#646A73"/>
<path d="M5.17159 13.1142C4.64464 13.4633 4.01272 13.6665 3.33333 13.6665C1.49238 13.6665 0 12.1741 0 10.3332C0 8.49222 1.49238 6.99984 3.33333 6.99984C5.17428 6.99984 6.66667 8.49222 6.66667 10.3332C6.66667 11.0126 6.46341 11.6445 6.1144 12.1714L7.80474 13.8618C8.06509 14.1221 8.06509 14.5442 7.80474 14.8046C7.54439 15.0649 7.12228 15.0649 6.86193 14.8046L5.17159 13.1142ZM5.33333 10.3332C5.33333 9.2286 4.4379 8.33317 3.33333 8.33317C2.22876 8.33317 1.33333 9.2286 1.33333 10.3332C1.33333 11.4377 2.22876 12.3332 3.33333 12.3332C4.4379 12.3332 5.33333 11.4377 5.33333 10.3332Z" fill="#646A73"/>
</svg>
