<svg width="16" height="16" viewBox="0 0 16 16" fill="none" xmlns="http://www.w3.org/2000/svg">
<path d="M5.66667 2.28353V3.6502H13.6667V2.28353H5.66667ZM10.6735 10.0169C11.2226 10.0132 11.6667 9.51354 11.6667 9.01353V6.98353C11.6667 6.49791 11.219 6.0002 10.6667 5.98353H6.33333H2C1.44772 6.0002 1 6.48124 1 6.98353V9.01353C1 9.51582 1.44772 10.0169 2 10.0169H10.6667C10.6667 10.0169 10.6712 10.0169 10.6735 10.0169ZM5.33106 11.0169C5.32877 11.0169 5.3265 11.0169 5.32422 11.0169C4.77508 11.0206 4.33106 11.4669 4.33106 12.0169V14.0502C4.33106 14.6025 4.77877 15.0502 5.33106 15.0502H13.9977C14.55 15.0502 14.9977 14.6025 14.9977 14.0502V12.0169C14.9977 11.4646 14.55 11.0169 13.9977 11.0169L5.33106 11.0169ZM2.33333 7.31686H10.3333V8.68353H2.33333V7.31686ZM5.66439 12.3502H13.6644V13.7169H5.66439V12.3502ZM4.33333 1.9502C4.33333 1.39791 4.78105 0.950195 5.33333 0.950195H14C14.5523 0.950195 15 1.39791 15 1.9502V3.98353C15 4.53581 14.5523 4.98353 14 4.98353H5.33333C4.78105 4.98353 4.33333 4.53581 4.33333 3.98353V1.9502Z" fill="#646A73"/>
</svg>
