<svg width="16" height="16" viewBox="0 0 16 16" fill="none" xmlns="http://www.w3.org/2000/svg">
<path d="M1.33203 2.66683C1.33203 1.93045 1.92898 1.3335 2.66536 1.3335H5.9987C6.73508 1.3335 7.33203 1.93045 7.33203 2.66683V6.00016C7.33203 6.73654 6.73508 7.3335 5.9987 7.3335H2.66536C1.92898 7.3335 1.33203 6.73654 1.33203 6.00016V2.66683ZM2.66536 2.66683L2.66536 6.00016H5.9987V2.66683H2.66536Z" fill="#646A73"/>
<path d="M1.33203 10.0002C1.33203 9.26378 1.92898 8.66683 2.66536 8.66683H5.9987C6.73508 8.66683 7.33203 9.26378 7.33203 10.0002V13.3335C7.33203 14.0699 6.73508 14.6668 5.9987 14.6668H2.66536C1.92898 14.6668 1.33203 14.0699 1.33203 13.3335V10.0002ZM2.66536 10.0002L2.66536 13.3335H5.9987V10.0002H2.66536Z" fill="#646A73"/>
<path d="M9.9987 1.3335C9.26232 1.3335 8.66536 1.93045 8.66536 2.66683V6.00016C8.66536 6.73654 9.26232 7.3335 9.9987 7.3335H13.332C14.0684 7.3335 14.6654 6.73654 14.6654 6.00016V2.66683C14.6654 1.93045 14.0684 1.3335 13.332 1.3335H9.9987ZM13.332 2.66683V6.00016H9.9987V2.66683H13.332Z" fill="#646A73"/>
<path d="M8.66536 10.0002C8.66536 9.26378 9.26232 8.66683 9.9987 8.66683H13.332C14.0684 8.66683 14.6654 9.26378 14.6654 10.0002V13.3335C14.6654 14.0699 14.0684 14.6668 13.332 14.6668H9.9987C9.26232 14.6668 8.66536 14.0699 8.66536 13.3335V10.0002ZM9.9987 10.0002V13.3335H13.332V10.0002H9.9987Z" fill="#646A73"/>
</svg>
