<svg width="16" height="16" viewBox="0 0 16 16" fill="none" xmlns="http://www.w3.org/2000/svg">
<path d="M2.66536 11.0002H5.33203V13.3335C5.33203 14.0699 5.92899 14.6668 6.66536 14.6668H9.33203C10.0684 14.6668 10.6654 14.0699 10.6654 13.3335V8.3335H13.332C14.0684 8.3335 14.6654 7.73654 14.6654 7.00016V2.66683C14.6654 1.93045 14.0684 1.3335 13.332 1.3335H2.66536C1.92898 1.3335 1.33203 1.93045 1.33203 2.66683V9.66683C1.33203 10.4032 1.92898 11.0002 2.66536 11.0002ZM5.33203 2.66683V9.66683H2.66536V2.66683H5.33203ZM9.33203 2.66683V13.3335H6.66536V2.66683H9.33203ZM10.6654 7.00016V2.66683H13.332V7.00016H10.6654Z" fill="#646A73"/>
</svg>
