<svg width="16" height="16" viewBox="0 0 16 16" fill="none" xmlns="http://www.w3.org/2000/svg">
<path d="M11.1372 4.52876C11.3975 4.78911 11.3975 5.21122 11.1372 5.47157L7.80385 8.8049C7.67882 8.92993 7.50923 9.00017 7.33241 9.00016C7.15558 9.00015 6.98601 8.92989 6.86099 8.80485L4.97646 6.91988C4.71614 6.6595 4.71619 6.23739 4.97657 5.97707C5.23695 5.71675 5.65906 5.7168 5.91938 5.97718L7.3325 7.39063L10.1944 4.52876C10.4547 4.26841 10.8768 4.26841 11.1372 4.52876Z" fill="#646A73"/>
<path d="M4.33203 11.0002C4.33203 10.632 4.63051 10.3335 4.9987 10.3335H10.9987C11.3669 10.3335 11.6654 10.632 11.6654 11.0002C11.6654 11.3684 11.3669 11.6668 10.9987 11.6668H4.9987C4.63051 11.6668 4.33203 11.3684 4.33203 11.0002Z" fill="#646A73"/>
<path d="M1.33203 2.66683C1.33203 1.93045 1.92898 1.3335 2.66536 1.3335H13.332C14.0684 1.3335 14.6654 1.93045 14.6654 2.66683V13.3335C14.6654 14.0699 14.0684 14.6668 13.332 14.6668H2.66536C1.92899 14.6668 1.33203 14.0699 1.33203 13.3335V2.66683ZM2.66536 2.66683V13.3335H13.332V2.66683H2.66536Z" fill="#646A73"/>
</svg>
