<svg width="18" height="19" viewBox="0 0 18 19" fill="none" xmlns="http://www.w3.org/2000/svg">
<path d="M6 3.5C6 2.67157 6.67157 2 7.5 2H10.5C11.3284 2 12 2.67157 12 3.5H15.75C16.1642 3.5 16.5 3.83579 16.5 4.25C16.5 4.66421 16.1642 5 15.75 5H15C15 8.5 15 12 15 15.5C15 16.3284 14.3284 17 13.5 17H4.5C3.67157 17 3 16.3284 3 15.5C3 12 3 8.5 3 5H2.25C1.83579 5 1.5 4.66421 1.5 4.25C1.5 3.83579 1.83579 3.5 2.25 3.5H6ZM4.5 5V15.5H13.5V5H4.5ZM7.5 7.25C7.91421 7.25 8.25 7.58579 8.25 8V12.5C8.25 12.9142 7.91421 13.25 7.5 13.25C7.08579 13.25 6.75 12.9142 6.75 12.5V8C6.75 7.58579 7.08579 7.25 7.5 7.25ZM10.5 7.25C10.9142 7.25 11.25 7.58579 11.25 8V12.5C11.25 12.9142 10.9142 13.25 10.5 13.25C10.0858 13.25 9.75 12.9142 9.75 12.5V8C9.75 7.58579 10.0858 7.25 10.5 7.25Z" fill="#646A73"/>
</svg>
