<svg width="121" height="120" viewBox="0 0 121 120" fill="none" xmlns="http://www.w3.org/2000/svg">
<path d="M77.0437 70.0795L76.8283 69.9809L62.359 81.0316C61.1703 81.9395 59.5743 82.1082 58.2219 81.4691L8.21977 57.8358C6.85883 57.1926 6.6695 55.3331 7.87286 54.4288L21.5603 44.1424L42.6416 7.61167C43.6825 5.80802 45.933 5.1047 47.8157 5.99472L99.1782 30.2764C99.5333 30.4442 99.8617 30.6635 100.153 30.9271L114.93 44.3024C116.326 45.5669 116.652 47.6347 115.71 49.2668L112.334 55.1195L94.3026 86.3444L91.4574 102.279C91.1814 103.825 89.3131 104.465 88.1478 103.412L74.8172 91.37C73.7729 90.4267 73.3012 89.004 73.575 87.6236L77.0527 70.0882L77.0437 70.0795Z" fill="#BBBFC4" fill-opacity="0.45"/>
<path d="M99.6143 30.5555C99.3748 30.4182 99.0692 30.5011 98.9319 30.7407L76.8319 69.3007C76.6946 69.5403 76.7775 69.8458 77.0171 69.9831C77.2567 70.1205 77.5622 70.0375 77.6995 69.798L99.7995 31.238C99.9368 30.9984 99.8539 30.6929 99.6143 30.5555Z" fill="#8F959E"/>
<path d="M23.1481 44.609C23.2643 44.3585 23.5616 44.2497 23.8121 44.3659L74.6821 67.9659C74.9326 68.0821 75.0415 68.3794 74.9253 68.6299C74.809 68.8804 74.5118 68.9892 74.2613 68.873L23.3913 45.273C23.1408 45.1568 23.0319 44.8595 23.1481 44.609Z" fill="#8F959E"/>
<path d="M79.0919 70.7157C79.2872 70.5205 79.6038 70.5206 79.799 70.7159L93.429 84.3559C93.6242 84.5512 93.6241 84.8678 93.4287 85.063C93.2334 85.2582 92.9168 85.2581 92.7216 85.0628L79.0916 71.4228C78.8964 71.2274 78.8966 70.9108 79.0919 70.7157Z" fill="#8F959E"/>
<path d="M12.2976 85.0758C12.3936 85.3407 12.6793 85.4857 12.9356 85.3997L26.9261 80.7052C27.1824 80.6192 27.3124 80.3347 27.2164 80.0698C27.1204 79.8049 26.8348 79.6598 26.5784 79.7458L12.588 84.4403C12.3316 84.5263 12.2016 84.8108 12.2976 85.0758Z" fill="#002270"/>
<path d="M29.1592 93.1365C29.3988 93.2817 29.7003 93.2068 29.8325 92.9691L33.407 86.5435C33.5392 86.3058 33.4521 85.9954 33.2124 85.8502C32.9728 85.705 32.6713 85.7799 32.5391 86.0176L28.9646 92.4431C28.8324 92.6808 28.9195 92.9912 29.1592 93.1365Z" fill="#002270"/>
<path d="M40.8525 98.3544C41.1176 98.436 41.3879 98.2863 41.4564 98.0199L43.2095 91.2039C43.278 90.9376 43.1187 90.6556 42.8537 90.574C42.5887 90.4924 42.3183 90.6421 42.2498 90.9084L40.4967 97.7245C40.4282 97.9908 40.5875 98.2728 40.8525 98.3544Z" fill="#002270"/>
<path d="M22.0441 15.2369C21.8072 15.9701 20.5295 20.0796 19.3945 26.224C21.5668 16.8434 31.2357 16.1999 38.251 15.2661L42.1562 8.44622C29.0405 6.83319 23.1995 12.7542 22.0441 15.2369Z" fill="#002270"/>
<path d="M20.9225 22.5347C21.0509 23.0541 21.2118 23.5665 21.4048 24.0727C22.4949 26.9319 24.5749 29.5086 27.3744 31.9806C32.5064 36.5122 40.3119 40.9009 49.6257 46.1376C50.081 46.3936 50.5399 46.6516 51.0022 46.9117L47.2365 51.6058C36.8022 45.6411 29.3354 41.0762 24.7907 36.9181C22.4741 34.7986 20.9858 32.8446 20.2334 30.935C19.4932 29.0563 19.4397 27.1569 20.1106 25.0658L20.9225 22.5347ZM19.1584 24.7603C16.2101 33.9506 25.8848 40.5791 47.4822 52.8976L52.5195 46.6184C52.2236 46.4517 51.9293 46.286 51.6364 46.1211C51.1381 45.8407 50.6441 45.5629 50.1547 45.2877C33.7141 36.0426 22.3614 29.6586 21.5906 20.4522C21.4473 18.7409 21.6697 16.9321 22.293 14.9893L19.1584 24.7603Z" fill="#002270"/>
<path d="M115.229 86.0665C114.789 83.8931 108.017 74.6118 102.273 72.5762L105.411 67.1211C111.08 69.772 115.204 74.3925 115.21 77.1715C115.217 80.033 115.274 83.5659 115.229 86.0665Z" fill="#002270"/>
<path d="M83.6606 91.9654L83.6445 85.1843C89.7317 86.0039 95.2361 86.9841 103.493 86.429C111.836 85.8682 115.218 81.8932 115.209 77.8652L115.229 86.394C114.8 88.8997 110.898 92.9466 103.944 93.2258C96.9901 93.5049 90.5864 93.0806 83.6606 91.9654Z" fill="#33D6C0"/>
<path d="M66.6627 105.195C62.5108 103.955 59.5924 102.772 57.5718 101.783L57.4336 94.708C60.3869 96.514 63.8677 97.5406 67.3071 98.4525C70.8133 99.3823 75.833 100.663 81.0725 101.913L81.0886 108.73C75.8307 107.597 70.5171 106.347 66.6627 105.195Z" fill="#336DF4"/>
<path d="M85.2035 109.546L85.1875 102.765C91.2747 103.585 96.779 104.565 105.036 104.01C113.379 103.449 116.761 99.4743 116.752 95.4463L116.772 103.975C116.343 106.481 112.441 110.528 105.487 110.807C98.5331 111.086 92.1294 110.662 85.2035 109.546Z" fill="#336DF4"/>
</svg>
